<svg id="Camada_1" data-name="Camada 1" xmlns="http://www.w3.org/2000/svg" xmlns:xlink="http://www.w3.org/1999/xlink" viewBox="0 0 1920 888"><defs><style>.cls-1{fill:none;}.cls-2{clip-path:url(#clip-path);}.cls-3{fill:#f2ac29;}.cls-4{fill:#a6978f;}.cls-5{fill:#fff;}</style><clipPath id="clip-path"><rect class="cls-1" x="-88.07" y="255.71" width="679" height="323.29" transform="translate(668.79 165.92) rotate(90)"/></clipPath></defs><title>HE-logo-header</title><g class="cls-2"><path class="cls-3" d="M710.11,349.13l-17.74-54.6a1.81,1.81,0,0,0-1.72-1.17l-44.4,2.55A262,262,0,0,0,599.4,231l16.31-41.84a1.79,1.79,0,0,0-.59-2l-46.44-33.75a1.8,1.8,0,0,0-2.08.06l-34.42,28.16a259.53,259.53,0,0,0-76.08-25l-11.39-43.4a1.81,1.81,0,0,0-1.65-1.27H385.65a1.81,1.81,0,0,0-1.65,1.27l-11.3,43a259.5,259.5,0,0,0-76.27,24.42l-34.71-28.39a1.79,1.79,0,0,0-2.08-.06l-46.45,33.74a1.81,1.81,0,0,0-.58,2l16.17,41.49A262.25,262.25,0,0,0,181.41,294l-44.77-2.57a1.81,1.81,0,0,0-1.72,1.17l-17.74,54.6a1.8,1.8,0,0,0,.7,2l37.45,24.05a263.7,263.7,0,0,0-.34,80.08l-37.74,24.24a1.8,1.8,0,0,0-.7,2l17.74,54.6a1.78,1.78,0,0,0,1.72,1.17l44.4-2.55a262.07,262.07,0,0,0,46.84,64.94L211,639.47a1.82,1.82,0,0,0,.58,2L258,675.21a1.79,1.79,0,0,0,2.08-.06L294.48,647a259.45,259.45,0,0,0,76.08,25L382,715.42a1.81,1.81,0,0,0,1.65,1.27H441a1.81,1.81,0,0,0,1.65-1.27l11.3-43A259.5,259.5,0,0,0,530.23,648l34.71,28.4a1.82,1.82,0,0,0,2.08.06l46.44-33.75a1.79,1.79,0,0,0,.59-2l-16.17-41.5a262.06,262.06,0,0,0,47.37-64.56L690,537.19a1.77,1.77,0,0,0,1.71-1.17l17.74-54.6a1.8,1.8,0,0,0-.69-2l-37.45-24a263.26,263.26,0,0,0,.33-80.08l37.75-24.24A1.8,1.8,0,0,0,710.11,349.13ZM564.81,565.78A214.21,214.21,0,1,1,627.56,414.3,212.79,212.79,0,0,1,564.81,565.78Z"/></g><rect class="cls-4" x="432.34" y="112.06" width="9.4" height="604.85"/><rect class="cls-5" x="459.3" y="688.55" width="1362.15" height="4.7"/><path class="cls-5" d="M789.5,248.84v63.6h50.85v-63.6h41.79V421H840.35V352.8H789.5V421h-42V248.84Z"/><path class="cls-5" d="M942.75,421V351.52L893.29,248.84h48.07l13.23,38.83c4.41,12,7.2,20.69,10.68,31.67h.47c3-10.47,6.26-19.92,10-31.67l13-38.83h47.14L984.54,349.73V421Z"/><path class="cls-5" d="M1047,251.14c11.38-2,27.86-3.57,51.78-3.57,22.52,0,38.54,4.34,49.46,13.53,10.68,8.69,17.87,24,17.87,41.64,0,17.37-5.34,32.69-15.09,42.4-12.77,12.51-31.11,17.88-52.24,17.88-4,0-7.66-.26-10.22-.52V421H1047Zm41.56,76.12a81.66,81.66,0,0,0,9.52.51c16.49,0,26.7-9.2,26.7-24,0-12.77-7.89-21.46-23.68-21.46a57.81,57.81,0,0,0-12.54,1Z"/><path class="cls-5" d="M1334,333.13c0,55.43-30.18,90.67-78.48,90.67-48.53,0-75.23-40.1-75.23-87.86,0-50.06,30-89.91,77.79-89.91C1308.46,246,1334,287.16,1334,333.13Zm-109.36,2c0,32.19,12.77,52.11,33,52.11s32-21.71,32-52.62c0-29.62-12.07-52.1-32.27-52.1C1237.41,282.56,1224.64,303.5,1224.64,335.17Zm75.93-127.7-27.87,32.18h-33.43l18.81-32.18Z"/><path class="cls-5" d="M1356.3,248.84h42V382.43h60.14V421H1356.3Z"/><path class="cls-5" d="M1520.92,248.84V421h-42V248.84Z"/><path class="cls-5" d="M1580.13,287.41H1540.2V248.84h122.59v38.57h-40.63V421h-42Z"/><path class="cls-5" d="M1822.31,333.13c0,55.43-30.18,90.67-78.48,90.67-48.53,0-75.23-40.1-75.23-87.86,0-50.06,30-89.91,77.79-89.91C1796.77,246,1822.31,287.16,1822.31,333.13Zm-109.36,2c0,32.19,12.77,52.11,33,52.11s32-21.71,32-52.62c0-29.62-12.07-52.1-32.27-52.1C1725.72,282.56,1713,303.5,1713,335.17Z"/><path class="cls-3" d="M817.58,564.37H771.37V609.8H823.3v22.26h-76V480.48h73.19v22.27H771.37v39.58h46.21Z"/><path class="cls-3" d="M844,632.06V480.48h26.17l31.9,65a501.74,501.74,0,0,1,21.26,49.93h.41c-1.64-20-2.25-40.71-2.25-65V480.48h22.08V632.06H919.19l-32.1-66.12a481.71,481.71,0,0,1-21.88-51.05l-.61.23c1,18.89,1.43,39.35,1.43,66.34v50.6Z"/><path class="cls-3" d="M1070.07,626a108.7,108.7,0,0,1-39,7.65c-20.44,0-36.39-5.85-48.25-18.67S964,581.69,964,557.62c.21-50.6,30.47-78.71,70.54-78.71,14.72,0,26.17,3.37,31.89,6.52l-5.11,21.82c-6.33-3.38-14.31-5.63-26.78-5.63-25.76,0-45.18,17.77-45.18,55.1,0,36.44,17.78,54.88,42.11,54.88,7.57,0,12.88-1.13,15.54-2.47V570H1025.5V548.85h44.57Z"/><path class="cls-3" d="M1164.53,564.37h-46.2V609.8h51.93v22.26H1094.2V480.48h73.2v22.27h-49.07v39.58h46.2Z"/><path class="cls-3" d="M1190.91,632.06V480.48h26.17l31.89,65a497.07,497.07,0,0,1,21.26,49.93h.41c-1.63-20-2.25-40.71-2.25-65V480.48h22.08V632.06h-24.33l-32.09-66.12a481.71,481.71,0,0,1-21.88-51.05l-.61.23c1,18.89,1.43,39.35,1.43,66.34v50.6Z"/><path class="cls-3" d="M1342,480.48v61.18h50.7V480.48h24.13V632.06H1392.7V565.27H1342v66.79h-24.13V480.48Z"/><path class="cls-3" d="M1469.37,590.23l-10.43,41.83h-24.53l40.07-151.58h30.06l39.87,151.58h-25.15l-11-41.83ZM1504.74,570l-9.4-36.66c-2.25-9.44-4.5-20.91-6.34-30.36h-.61c-1.85,9.45-3.89,21.14-6.14,30.36l-9.2,36.66Z"/><path class="cls-3" d="M1562.8,482.51a186.38,186.38,0,0,1,34.56-3.15c18.19,0,31.07,3.37,40.07,11.92,7.57,7.19,11.45,17.76,11.45,30.58,0,18.89-10.84,32.39-24.13,38v.68c10,4,15.54,14.39,18.81,29.91,3.89,18.89,7.57,36,10,41.6h-24.74c-2-4.27-5.31-17.54-8.58-36-3.68-19.79-9.82-26.31-23.11-26.54h-10.22v62.52H1562.8Zm24.13,67.24H1599c16,0,25.76-10.34,25.76-25.41,0-16-9.2-24.52-24.74-24.52-6.54,0-10.83.45-13.08,1.13Z"/><path class="cls-3" d="M1695.49,480.48V632.06h-24.12V480.48Z"/><path class="cls-3" d="M1748.24,590.23l-10.43,41.83h-24.53l40.07-151.58h30.06l39.87,151.58h-25.15l-11-41.83ZM1783.61,570l-9.4-36.66c-2.25-9.44-4.5-20.91-6.34-30.36h-.61c-1.84,9.45-3.89,21.14-6.14,30.36l-9.2,36.66Z"/><path class="cls-5" d="M464.29,724.22A46.17,46.17,0,0,1,475.57,723c6.11,0,11.63,1.6,15,4.51s5.29,7,5.29,12.69c0,5.17-1.3,8.46-3.65,11.47-4,5.08-10.93,7.71-18.33,7.71a33.31,33.31,0,0,1-4.58-.19v27.45h-5Zm5,31.4a25,25,0,0,0,4.23.28c9.52,0,17-4.79,17-15.6,0-7.15-3.65-13.82-15.51-13.82a30,30,0,0,0-5.76.47Z"/><path class="cls-5" d="M508.23,724.22A39.25,39.25,0,0,1,518.92,723c7.41,0,12.23,1.5,15.75,4.42a15.2,15.2,0,0,1,5.17,11.84c0,8.93-5.17,13.73-13,16.64v.19c6.11,1.22,9.4,6,11.28,15.23,2,9.68,3.29,13.54,4.23,15.32h-5c-1.18-2-2.59-7.71-4.35-16-2-9.21-6-13.07-15.28-13.07h-4.35v29h-5Zm5,30.18h4.47c9.75,0,16.8-5.55,16.8-14.39,0-8.46-4.35-13.53-15.86-13.53a29.69,29.69,0,0,0-5.41.37Z"/><path class="cls-5" d="M591.42,755c0,23.6-9.87,32.43-21.27,32.43-10.22,0-20.09-8.74-20.09-32.43,0-23.31,10-32.43,21.5-32.43C581.67,722.53,591.42,731.18,591.42,755Zm-36.07,0c0,12.22,3,28.77,15.51,28.77s15.27-16.55,15.27-28.77-3-28.77-15.39-28.77S555.35,742.55,555.35,755Z"/><path class="cls-5" d="M612.69,723.28h5v47c0,11.65-4.82,17.1-16.21,17.1a18,18,0,0,1-4.7-.47l.47-3.47a24.35,24.35,0,0,0,3.87.28c7.64,0,11.52-2.45,11.52-13.63Z"/><path class="cls-5" d="M658.87,755.15H638v27.92h24v3.57h-29V723.28h27.5v3.57H638v24.73h20.92Z"/><path class="cls-5" d="M682.49,726.76H667.68v-3.48h34.66v3.48h-14.8v59.88h-5Z"/><path class="cls-5" d="M746.17,755c0,23.6-9.87,32.43-21.27,32.43-10.22,0-20.09-8.74-20.09-32.43,0-23.31,10-32.43,21.5-32.43C736.42,722.53,746.17,731.18,746.17,755Zm-36.07,0c0,12.22,3,28.77,15.51,28.77s15.27-16.55,15.27-28.77-3-28.77-15.39-28.77S710.1,742.55,710.1,755Z"/><path class="cls-5" d="M804.45,755.15H783.54v27.92h24v3.57h-29V723.28H806v3.57H783.54v24.73h20.91Z"/><path class="cls-5" d="M837.94,724.22A39.25,39.25,0,0,1,848.63,723c7.41,0,12.22,1.5,15.75,4.42a15.2,15.2,0,0,1,5.17,11.84c0,8.93-5.17,13.73-13,16.64v.19c6.12,1.22,9.41,6,11.29,15.23,2,9.68,3.29,13.54,4.23,15.32H867c-1.17-2-2.58-7.71-4.34-16-2-9.21-6-13.07-15.28-13.07H843v29h-5Zm5,30.18h4.47c9.75,0,16.8-5.55,16.8-14.39,0-8.46-4.35-13.53-15.86-13.53a29.69,29.69,0,0,0-5.41.37Z"/><path class="cls-5" d="M908.79,755.15H887.88v27.92h24v3.57h-29V723.28h27.5v3.57H887.88v24.73h20.91Z"/><path class="cls-5" d="M958.61,785A38.54,38.54,0,0,1,946,787.21c-5.64,0-11.87-1.23-17.27-6.11-5.06-4.61-9-13-9-25,0-25.67,15.39-33.37,27.5-33.37a27.41,27.41,0,0,1,10.34,1.69L955.91,728a22.34,22.34,0,0,0-9.16-1.6c-9.52,0-21.74,6.68-21.74,28.2,0,22.19,10.45,29,21.5,29,4,0,6.23-.56,7-.94V758.53h-12.1v-3.47h17.15Z"/><path class="cls-5" d="M977.65,723.28v43.24c0,12.79,5.64,17.21,12.81,17.21,8.1,0,13.16-5.08,13.16-17.21V723.28h5v42.77c0,16.55-8.93,21.34-18.45,21.34-9.05,0-17.63-4.41-17.63-20V723.28Z"/><path class="cls-5" d="M1024.53,723.28h5v59.88h23.5v3.48h-28.55Z"/><path class="cls-5" d="M1071.18,764.83l-6.35,21.81h-4.93l18.68-63.36h4.82l18.92,63.36h-5.17l-6.35-21.81Zm18.45-3.48-5.05-17.86c-1.41-4.89-2.47-9.4-3.53-14.48h-.47c-.94,5.18-2.12,9.88-3.41,14.58l-4.93,17.76Z"/><path class="cls-5" d="M1114.42,724.22a39.25,39.25,0,0,1,10.69-1.22c7.4,0,12.22,1.5,15.75,4.42a15.2,15.2,0,0,1,5.17,11.84c0,8.93-5.17,13.73-13,16.64v.19c6.11,1.22,9.4,6,11.29,15.23,2,9.68,3.29,13.54,4.23,15.32h-5.06c-1.17-2-2.58-7.71-4.35-16-2-9.21-6-13.07-15.27-13.07h-4.35v29h-5Zm5,30.18h4.47c9.75,0,16.8-5.55,16.8-14.39,0-8.46-4.35-13.53-15.86-13.53a29.69,29.69,0,0,0-5.41.37Z"/><path class="cls-5" d="M1164.36,723.28v63.36h-5.06V723.28Z"/><path class="cls-5" d="M1176.1,784.1,1204.54,727v-.19h-26.2v-3.48h32v2.35l-28.44,57.25v.28h28.32v3.48H1176.1Z"/><path class="cls-5" d="M1230.16,764.83l-6.35,21.81h-4.93l18.68-63.36h4.82l18.91,63.36h-5.16l-6.35-21.81Zm18.44-3.48-5-17.86c-1.41-4.89-2.47-9.4-3.52-14.48h-.47c-.94,5.18-2.12,9.88-3.41,14.58l-4.94,17.76Z"/><path class="cls-5" d="M1291.26,791.72c3.88.37,7.52,3,7.52,6.58,0,4.89-5,7-9.28,7a15.73,15.73,0,0,1-7.17-1.79l1.64-3a10.88,10.88,0,0,0,5.64,1.41c2.24,0,4.59-.75,4.59-3.19,0-3-4.35-4.14-8.11-4.52l4.11-7c-11.75-.75-22.44-9-22.44-31.49,0-25.66,14.8-32.9,25.61-32.9,4.35,0,7.64.65,9.29,1.5l-1.65,3.57a20.36,20.36,0,0,0-8.46-1.41c-8.22,0-19.51,7-19.51,28.49,0,22.09,10,28.67,20,28.67a22.11,22.11,0,0,0,8.81-1.6l1.41,3.48a27.27,27.27,0,0,1-9,1.79Z"/><path class="cls-5" d="M1321.92,764.83l-6.34,21.81h-4.94l18.69-63.36h4.81l18.92,63.36h-5.17l-6.34-21.81Zm-1.76-45.69c0-4.13,2.23-7.52,6.46-7.52a11.06,11.06,0,0,1,5.17,1.6c1.77.85,3.06,1.69,4.82,1.69,2,0,3.06-.84,3.29-3.38h3.41c0,3.76-1.64,7.05-6.81,7.05a11.54,11.54,0,0,1-5.41-1.69c-1.53-.75-2.94-1.6-4.35-1.6-2.11,0-2.7,1.32-3,3.85Zm20.21,42.21-5-17.86c-1.41-4.89-2.47-9.4-3.53-14.48h-.46c-.95,5.18-2.12,9.88-3.41,14.58L1323,761.35Z"/><path class="cls-5" d="M1400.89,755c0,23.6-9.87,32.43-21.27,32.43-10.22,0-20.09-8.74-20.09-32.43,0-23.31,10-32.43,21.5-32.43C1391.13,722.53,1400.89,731.18,1400.89,755Zm-36.08,0c0,12.22,3.06,28.77,15.51,28.77s15.28-16.55,15.28-28.77-3.06-28.77-15.39-28.77S1364.81,742.55,1364.81,755Z"/><path class="cls-5" d="M1433.2,724.22a34.74,34.74,0,0,1,10-1.22c7.28,0,12.57,1.5,16.45,4.23,5.76,3.85,10.93,11.94,10.93,25.76,0,15.51-4.59,22.65-8.58,26.7-4.94,5-12.46,7.23-20.33,7.23a47.15,47.15,0,0,1-8.46-.56Zm5,58.94a32.87,32.87,0,0,0,3.88.19c11.51,0,23.15-5.73,23.15-29.8,0-17.77-7.29-27.07-22.09-27.07a41.42,41.42,0,0,0-4.94.37Z"/><path class="cls-5" d="M1509.34,755.15h-20.92v27.92h24v3.57h-29V723.28h27.5v3.57h-22.45v24.73h20.92Z"/><path class="cls-5" d="M1547.88,723.28v63.36h-5.05V723.28Z"/><path class="cls-5" d="M1611.45,756.18c-.59-9.77-1.18-19.74-.82-27.17H1610c-1.88,7.24-4,14.67-7,23.6l-11.52,34h-2.58L1578,754.3c-3.29-9.87-5.76-17.67-7.52-25.29H1570c.23,7.81-.24,17.21-.82,27.93l-1.53,29.7h-5l4.11-63.36h5.87l11,32.72c2.94,8.55,4.94,14.29,6.82,21.52h.35c1.76-7.33,3.52-12.69,6.34-21.52l10.7-32.72h6.34l4.35,63.36h-5.17Z"/><path class="cls-5" d="M1671.26,755c0,23.6-9.87,32.43-21.27,32.43-10.23,0-20.1-8.74-20.1-32.43,0-23.31,10-32.43,21.51-32.43C1661.5,722.53,1671.26,731.18,1671.26,755Zm-36.08,0c0,12.22,3.06,28.77,15.51,28.77S1666,767.18,1666,755s-3.06-28.77-15.39-28.77S1635.18,742.55,1635.18,755Zm30-44.93-14.81,9.87h-4.82l12-9.87Z"/><path class="cls-5" d="M1696.28,786.64,1678,723.28h5.17l9.05,31.21c2.12,7.33,4.94,17.3,6.46,25.76h.47c1.3-8.55,4-18.14,6.23-26l8.93-31h5.06l-18.57,63.36Z"/><path class="cls-5" d="M1756.8,755.15h-20.92v27.92h24v3.57h-29V723.28h27.49v3.57h-22.44v24.73h20.92Z"/><path class="cls-5" d="M1775.83,723.28v63.36h-5V723.28Z"/><path class="cls-5" d="M1790.05,780.91a24.1,24.1,0,0,0,10.34,2.63c8.93,0,14.69-5.17,14.69-13,0-6.68-4.7-11-10.58-15-3.41-2.35-14.92-7.8-14.92-17.49,0-9.21,8.34-15.41,18.45-15.41a21.11,21.11,0,0,1,10.22,2.35l-2,3.47a18.53,18.53,0,0,0-9-2.16c-8.46,0-12.45,5.64-12.45,10.63,0,7.8,5.17,10.62,12.1,14.94,8.93,5.64,13.4,11.1,13.4,18.34,0,10.52-8.93,16.92-19.74,16.92-4.82,0-10.23-1.51-12.22-2.92Z"/><path class="cls-5" d="M711.21,424.58,698.11,454H622.9V646.14l-17.62,17.63h-111V664H459V461.86h35.25V628.52h93.38V436.37l17.63-17.63h53.26l-196-217.91V148.12ZM498.86,349.39a36.58,36.58,0,0,0-36.58-36.58h-.12V386h.12A36.57,36.57,0,0,0,498.86,349.39Z"/></svg>